<svg width="24" height="24" viewBox="0 0 24 24" fill="none" xmlns="http://www.w3.org/2000/svg">
<path d="M17.75 3C18.612 3 19.4386 3.34241 20.0481 3.9519C20.6576 4.5614 21 5.38805 21 6.25V17.75C21 18.612 20.6576 19.4386 20.0481 20.0481C19.4386 20.6576 18.612 21 17.75 21H6.25C5.38805 21 4.5614 20.6576 3.9519 20.0481C3.34241 19.4386 3 18.612 3 17.75V6.25C3 5.38805 3.34241 4.5614 3.9519 3.9519C4.5614 3.34241 5.38805 3 6.25 3H17.75ZM17.75 4.5H6.25C5.78587 4.5 5.34075 4.68437 5.01256 5.01256C4.68437 5.34075 4.5 5.78587 4.5 6.25V17.75C4.5 18.716 5.284 19.5 6.25 19.5H17.75C18.2141 19.5 18.6592 19.3156 18.9874 18.9874C19.3156 18.6592 19.5 18.2141 19.5 17.75V6.25C19.5 5.78587 19.3156 5.34075 18.9874 5.01256C18.6592 4.68437 18.2141 4.5 17.75 4.5ZM9.369 15.254L8.859 16.126C8.76257 16.289 8.60807 16.4094 8.4265 16.4632C8.24493 16.517 8.04975 16.5001 7.88012 16.4159C7.7105 16.3317 7.579 16.1865 7.51201 16.0094C7.44503 15.8323 7.44753 15.6364 7.519 15.461L7.564 15.37L7.631 15.254H9.369ZM13.293 10.024L15.012 13.004H16.752C16.9335 13.0041 17.1089 13.07 17.2455 13.1895C17.3822 13.3091 17.4708 13.4741 17.495 13.654L17.502 13.754C17.5022 13.9354 17.4367 14.1108 17.3176 14.2476C17.1984 14.3844 17.0337 14.4733 16.854 14.498L16.752 14.505H15.877L16.379 15.375C16.4747 15.5397 16.5041 15.7347 16.4613 15.9204C16.4185 16.106 16.3066 16.2684 16.1484 16.3746C15.9902 16.4807 15.7975 16.5227 15.6095 16.4919C15.4214 16.4612 15.2522 16.36 15.136 16.209L15.08 16.124L12.422 11.516L13.293 10.024ZM13.263 7.101C13.4197 7.1924 13.538 7.33749 13.5959 7.50941C13.6538 7.68133 13.6475 7.86841 13.578 8.036L13.532 8.127L10.682 13.004H12.414L13.279 14.504H7.252C7.06316 14.5022 6.88195 14.4293 6.74454 14.2997C6.60713 14.1702 6.52365 13.9936 6.51077 13.8052C6.49789 13.6168 6.55656 13.4305 6.67506 13.2834C6.79356 13.1364 6.96316 13.0395 7.15 13.012L7.252 13.005H8.946L11.126 9.271L10.464 8.124C10.3733 7.96695 10.3425 7.78234 10.3775 7.60437C10.4124 7.42639 10.5106 7.2671 10.654 7.156L10.739 7.099C10.896 7.00827 11.0807 6.97753 11.2586 7.01246C11.4366 7.04739 11.5959 7.14564 11.707 7.289L11.763 7.374L11.996 7.78L12.237 7.37C12.2867 7.28497 12.3527 7.21056 12.4311 7.15102C12.5096 7.09148 12.599 7.04798 12.6943 7.023C12.7896 6.99802 12.8888 6.99206 12.9864 7.00544C13.084 7.01882 13.178 7.05129 13.263 7.101Z" fill="white"/>
</svg>
