<svg width="24" height="24" viewBox="0 0 24 24" fill="none" xmlns="http://www.w3.org/2000/svg">
<path d="M6.25 2C5.65326 2 5.08097 2.23705 4.65901 2.65901C4.23705 3.08097 4 3.65326 4 4.25V19.75C4 20.3467 4.23705 20.919 4.65901 21.341C5.08097 21.7629 5.65326 22 6.25 22H12.81C12.3811 21.5539 12.0181 21.0488 11.732 20.5H6.25C6.05109 20.5 5.86032 20.421 5.71967 20.2803C5.57902 20.1397 5.5 19.9489 5.5 19.75V4.25C5.5 4.05109 5.57902 3.86032 5.71967 3.71967C5.86032 3.57902 6.05109 3.5 6.25 3.5H17.75C17.9489 3.5 18.1397 3.57902 18.2803 3.71967C18.421 3.86032 18.5 4.05109 18.5 4.25V11.076C19.0151 11.156 19.5187 11.2977 20 11.498V4.25C20 3.95453 19.9418 3.66194 19.8287 3.38896C19.7157 3.11598 19.5499 2.86794 19.341 2.65901C19.1321 2.45008 18.884 2.28434 18.611 2.17127C18.3381 2.0582 18.0455 2 17.75 2H6.25ZM8.5 13.25C8.69698 13.25 8.89204 13.2112 9.07403 13.1358C9.25601 13.0604 9.42137 12.9499 9.56066 12.8107C9.69995 12.6714 9.81044 12.506 9.88582 12.324C9.9612 12.142 10 11.947 10 11.75C10 11.553 9.9612 11.358 9.88582 11.176C9.81044 10.994 9.69995 10.8286 9.56066 10.6893C9.42137 10.5501 9.25601 10.4396 9.07403 10.3642C8.89204 10.2888 8.69698 10.25 8.5 10.25C8.10218 10.25 7.72064 10.408 7.43934 10.6893C7.15804 10.9706 7 11.3522 7 11.75C7 12.1478 7.15804 12.5294 7.43934 12.8107C7.72064 13.092 8.10218 13.25 8.5 13.25Z" fill="#F66F6F"/>
<path fill-rule="evenodd" clip-rule="evenodd" d="M17.5 23C16.0413 23 14.6424 22.4205 13.6109 21.3891C12.5795 20.3576 12 18.9587 12 17.5C12 16.0413 12.5795 14.6424 13.6109 13.6109C14.6424 12.5795 16.0413 12 17.5 12C18.9587 12 20.3576 12.5795 21.3891 13.6109C22.4205 14.6424 23 16.0413 23 17.5C23 18.9587 22.4205 20.3576 21.3891 21.3891C20.3576 22.4205 18.9587 23 17.5 23ZM14.1464 17.8536C14.0527 17.7598 14 17.6326 14 17.5C14 17.3674 14.0527 17.2402 14.1464 17.1464C14.2402 17.0527 14.3674 17 14.5 17H19.293L17.646 15.354C17.5521 15.2601 17.4994 15.1328 17.4994 15C17.4994 14.8672 17.5521 14.7399 17.646 14.646C17.7399 14.5521 17.8672 14.4994 18 14.4994C18.1328 14.4994 18.2601 14.5521 18.354 14.646L20.854 17.146C20.9006 17.1924 20.9375 17.2476 20.9627 17.3084C20.9879 17.3691 21.0009 17.4342 21.0009 17.5C21.0009 17.5658 20.9879 17.6309 20.9627 17.6916C20.9375 17.7524 20.9006 17.8076 20.854 17.854L18.354 20.354C18.2601 20.4479 18.1328 20.5006 18 20.5006C17.8672 20.5006 17.7399 20.4479 17.646 20.354C17.5521 20.2601 17.4994 20.1328 17.4994 20C17.4994 19.8672 17.5521 19.7399 17.646 19.646L19.293 18H14.5C14.3674 18 14.2402 17.9473 14.1464 17.8536Z" fill="#F66F6F"/>
</svg>
