<svg width="24" height="24" viewBox="0 0 24 24" fill="none" xmlns="http://www.w3.org/2000/svg">
<path d="M14.856 15.4999L16.356 13.9999H6.25201C5.65528 13.9999 5.08298 14.2369 4.66102 14.6589C4.23907 15.0808 4.00201 15.6531 4.00201 16.2499V16.8269C4.00201 17.7189 4.32201 18.5829 4.90201 19.2619C6.29701 20.8959 8.34401 21.7929 10.999 21.9689C10.9943 21.7862 11.0157 21.5992 11.063 21.4079L11.293 20.4839C8.92001 20.3639 7.18501 19.6259 6.04201 18.2879C5.69381 17.8807 5.50233 17.3626 5.50201 16.8269V16.2489C5.50228 16.0501 5.58141 15.8596 5.72204 15.7192C5.86266 15.5788 6.05327 15.4999 6.25201 15.4999H14.856ZM12 2.00488C12.6566 2.00488 13.3068 2.13421 13.9134 2.38548C14.5201 2.63676 15.0713 3.00506 15.5355 3.46935C15.9998 3.93364 16.3681 4.48484 16.6194 5.09147C16.8707 5.69809 17 6.34827 17 7.00488C17 7.66149 16.8707 8.31167 16.6194 8.9183C16.3681 9.52493 15.9998 10.0761 15.5355 10.5404C15.0713 11.0047 14.5201 11.373 13.9134 11.6243C13.3068 11.8756 12.6566 12.0049 12 12.0049C10.6739 12.0049 9.40216 11.4781 8.46448 10.5404C7.5268 9.60273 7.00001 8.33097 7.00001 7.00488C7.00001 5.6788 7.5268 4.40703 8.46448 3.46935C9.40216 2.53167 10.6739 2.00488 12 2.00488ZM12 3.50488C11.5404 3.50488 11.0853 3.59541 10.6606 3.7713C10.236 3.9472 9.85015 4.205 9.52514 4.53001C9.20014 4.85501 8.94233 5.24085 8.76644 5.66549C8.59054 6.09013 8.50001 6.54526 8.50001 7.00488C8.50001 7.46451 8.59054 7.91963 8.76644 8.34427C8.94233 8.76891 9.20014 9.15475 9.52514 9.47976C9.85015 9.80476 10.236 10.0626 10.6606 10.2385C11.0853 10.4144 11.5404 10.5049 12 10.5049C12.9283 10.5049 13.8185 10.1361 14.4749 9.47976C15.1313 8.82338 15.5 7.93314 15.5 7.00488C15.5 6.07662 15.1313 5.18639 14.4749 4.53001C13.8185 3.87363 12.9283 3.50488 12 3.50488ZM19.1 12.6699L13.197 18.5719C12.8537 18.9164 12.6097 19.3472 12.491 19.8189L12.033 21.6499C11.9875 21.8321 11.9899 22.0229 12.04 22.2039C12.0902 22.3848 12.1864 22.5497 12.3192 22.6825C12.4521 22.8152 12.617 22.9112 12.798 22.9613C12.979 23.0113 13.1699 23.0136 13.352 22.9679L15.182 22.5109C15.6541 22.392 16.0854 22.1478 16.43 21.8039L22.332 15.9019C22.7441 15.47 22.9709 14.8939 22.9639 14.297C22.9569 13.7001 22.7166 13.1295 22.2945 12.7074C21.8724 12.2853 21.3018 12.045 20.7049 12.038C20.108 12.031 19.5319 12.2578 19.1 12.6699Z" fill="white"/>
</svg>
