<svg width="10" height="6" viewBox="0 0 10 6" fill="none" xmlns="http://www.w3.org/2000/svg">
<path d="M1.95702 1.2475e-09C1.77434 -9.12195e-06 1.59515 0.0500216 1.4389 0.144661C1.28265 0.239301 1.15531 0.374934 1.0707 0.536837C0.986088 0.698739 0.947444 0.880725 0.958959 1.06304C0.970475 1.24535 1.03171 1.42103 1.13602 1.571L3.76902 5.355C3.90719 5.55345 4.0913 5.71555 4.30564 5.82749C4.51998 5.93943 4.75821 5.99789 5.00002 5.99789C5.24183 5.99789 5.48006 5.93943 5.6944 5.82749C5.90875 5.71555 6.09285 5.55345 6.23102 5.355L8.86402 1.571C8.96833 1.42103 9.02957 1.24535 9.04108 1.06304C9.0526 0.880725 9.01395 0.698739 8.92934 0.536837C8.84473 0.374934 8.71739 0.239301 8.56114 0.144661C8.40489 0.0500216 8.2257 -9.12195e-06 8.04302 1.2475e-09H1.95702Z" fill="#F66F6F"/>
</svg>
