<svg width="16" height="16" viewBox="0 0 16 16" fill="none" xmlns="http://www.w3.org/2000/svg">
<path d="M11.334 2.06407L11.411 2.21707L11.987 3.75007C12.032 3.87007 12.127 3.96607 12.248 4.01107L13.728 4.56707C14.378 4.81007 14.727 5.50407 14.554 6.16107L14.512 6.29107L13.824 7.81407C13.7978 7.87222 13.7842 7.93528 13.7842 7.99907C13.7842 8.06286 13.7978 8.12592 13.824 8.18407L14.478 9.62407C14.6148 9.92592 14.6349 10.2678 14.5345 10.5836C14.434 10.8994 14.2201 11.1668 13.934 11.3341L13.781 11.4111L12.248 11.9871C12.1887 12.0098 12.1349 12.0448 12.0901 12.0897C12.0452 12.1347 12.0105 12.1887 11.988 12.2481L11.432 13.7281C11.3156 14.0388 11.088 14.2953 10.7934 14.4479C10.4987 14.6005 10.1579 14.6383 9.83698 14.5541L9.70698 14.5121L8.18398 13.8241C8.12583 13.7978 8.06277 13.7843 7.99898 13.7843C7.93519 13.7843 7.87213 13.7978 7.81398 13.8241L6.37498 14.4781C6.07314 14.6149 5.7313 14.635 5.41548 14.5346C5.09966 14.4341 4.83228 14.2202 4.66498 13.9341L4.58798 13.7811L4.01098 12.2481C3.98828 12.1888 3.95329 12.135 3.90831 12.0901C3.86333 12.0453 3.80937 12.0105 3.74998 11.9881L2.26998 11.4321C1.95926 11.3157 1.70277 11.0881 1.55018 10.7935C1.39759 10.4988 1.35975 10.158 1.44398 9.83707L1.48598 9.70707L2.17498 8.18407C2.20121 8.12592 2.21477 8.06286 2.21477 7.99907C2.21477 7.93528 2.20121 7.87222 2.17498 7.81407L1.51998 6.37507C1.38306 6.07335 1.36278 5.73159 1.46306 5.41579C1.56335 5.09998 1.77707 4.83253 2.06298 4.66507L2.21598 4.58807L3.74998 4.01007C3.80947 3.98749 3.86349 3.95255 3.90848 3.90757C3.95346 3.86258 3.9884 3.80856 4.01098 3.74907L4.56698 2.26907C4.68338 1.95856 4.91078 1.70224 5.20521 1.54967C5.49963 1.3971 5.84018 1.35912 6.16098 1.44307L6.29098 1.48507L7.81398 2.17407C7.87213 2.2003 7.93519 2.21386 7.99898 2.21386C8.06277 2.21386 8.12583 2.2003 8.18398 2.17407L9.62398 1.52007C9.92571 1.38315 10.2675 1.36287 10.5833 1.46315C10.8991 1.56344 11.1665 1.77816 11.334 2.06407ZM5.40298 2.58307L4.84798 4.06307C4.78082 4.24213 4.6761 4.40474 4.54087 4.53996C4.40565 4.67519 4.24304 4.77991 4.06398 4.84707L2.58398 5.40207L2.48598 5.45307C2.40051 5.51314 2.33861 5.60107 2.31087 5.70178C2.28314 5.8025 2.29131 5.90972 2.33398 6.00507L2.98798 7.44407C3.14798 7.79607 3.14798 8.20007 2.98798 8.55207L2.32798 10.0061L2.30098 10.0971C2.28323 10.1999 2.30175 10.3057 2.35337 10.3963C2.405 10.487 2.48651 10.5569 2.58398 10.5941L4.06398 11.1501C4.42598 11.2861 4.71198 11.5711 4.84798 11.9341L5.40298 13.4141L5.45398 13.5121C5.57398 13.6861 5.80598 13.7541 6.00598 13.6631L7.44498 13.0101C7.61899 12.9311 7.80788 12.8902 7.99898 12.8902C8.19009 12.8902 8.37898 12.9311 8.55298 13.0101L10.007 13.6701L10.098 13.6961C10.2007 13.7139 10.3063 13.6955 10.397 13.6441C10.4876 13.5927 10.5576 13.5114 10.595 13.4141L11.151 11.9341C11.2182 11.755 11.3229 11.5924 11.4581 11.4572C11.5933 11.322 11.7559 11.2172 11.935 11.1501L13.415 10.5941L13.513 10.5441C13.5983 10.4839 13.66 10.3959 13.6875 10.2952C13.7151 10.1945 13.7068 10.0873 13.664 9.99207L13.011 8.55207C12.932 8.37807 12.8911 8.18918 12.8911 7.99807C12.8911 7.80697 12.932 7.61808 13.011 7.44407L13.671 5.99107L13.697 5.89907C13.7148 5.79639 13.6964 5.69071 13.645 5.60007C13.5936 5.50943 13.5123 5.43945 13.415 5.40207L11.935 4.84707C11.7559 4.77991 11.5933 4.67519 11.4581 4.53996C11.3229 4.40474 11.2182 4.24213 11.151 4.06307L10.595 2.58307L10.545 2.48507C10.4849 2.3996 10.397 2.3377 10.2963 2.30996C10.1956 2.28223 10.0883 2.2904 9.99298 2.33307L8.55298 2.98707C8.37898 3.06608 8.19009 3.10696 7.99898 3.10696C7.80788 3.10696 7.61899 3.06608 7.44498 2.98707L6.00498 2.33307L5.97798 2.32107C5.86699 2.27962 5.74407 2.28393 5.63625 2.33306C5.52844 2.38219 5.44453 2.47211 5.40298 2.58307ZM6.97698 9.34507L10.163 5.70507C10.2361 5.62266 10.337 5.57013 10.4464 5.55757C10.5559 5.545 10.6661 5.57329 10.756 5.637C10.8458 5.7007 10.909 5.79535 10.9334 5.90277C10.9577 6.01019 10.9416 6.12283 10.888 6.21907L10.835 6.29207L7.33498 10.2921C7.26411 10.3722 7.16701 10.4245 7.06108 10.4395C6.95516 10.4545 6.84735 10.4313 6.75698 10.3741L6.68298 10.3141L5.18298 8.81407C5.1051 8.7357 5.05901 8.63125 5.0536 8.5209C5.04819 8.41054 5.08384 8.30209 5.15368 8.21646C5.22352 8.13084 5.32259 8.07412 5.43179 8.05725C5.54098 8.04037 5.65255 8.06453 5.74498 8.12507L5.81498 8.18207L6.97698 9.34507Z" fill="#FFE713"/>
</svg>
