<svg width="24" height="28" viewBox="0 0 24 28" fill="none" xmlns="http://www.w3.org/2000/svg">
<path d="M3.998 4H2.992C2.19635 4 1.43329 4.31607 0.870684 4.87868C0.308075 5.44129 -0.00799561 6.20435 -0.00799561 7V9C-0.00799561 11.504 1.836 13.576 4.236 13.942C4.62738 15.5066 5.48251 16.9163 6.68921 17.9863C7.89592 19.0563 9.39785 19.7366 10.998 19.938V22H7.998C6.93714 22 5.91972 22.4214 5.16958 23.1716C4.41943 23.9217 3.998 24.9391 3.998 26V27.008C3.998 27.2732 4.10336 27.5276 4.2909 27.7151C4.47843 27.9026 4.73279 28.008 4.998 28.008H18.998C19.2632 28.008 19.5176 27.9026 19.7051 27.7151C19.8926 27.5276 19.998 27.2732 19.998 27.008V26C19.998 24.9391 19.5766 23.9217 18.8264 23.1716C18.0763 22.4214 17.0589 22 15.998 22H12.998V19.94C14.5987 19.7384 16.101 19.0575 17.3077 17.9867C18.5145 16.9159 19.3693 15.5053 19.76 13.94C20.9402 13.7585 22.0164 13.1607 22.7941 12.2546C23.5718 11.3485 23.9995 10.194 24 9V7C24 6.20435 23.6839 5.44129 23.1213 4.87868C22.5587 4.31607 21.7957 4 21 4H20C20 2.93913 19.5786 1.92172 18.8284 1.17157C18.0783 0.421427 17.0609 0 16 0H8C6.93914 0 5.92172 0.421427 5.17158 1.17157C4.42143 1.92172 3.998 2.93913 3.998 4ZM20 6H21C21.2652 6 21.5196 6.10536 21.7071 6.29289C21.8946 6.48043 22 6.73478 22 7V9C21.9999 9.62031 21.8075 10.2253 21.4494 10.7318C21.0912 11.2383 20.5848 11.6212 20 11.828V6ZM4 6V11.83C3.41335 11.6245 2.90504 11.2417 2.54532 10.7348C2.18561 10.2278 1.99226 9.62162 1.992 9V7C1.992 6.73478 2.09736 6.48043 2.2849 6.29289C2.47243 6.10536 2.72679 6 2.992 6H4Z" fill="#24AE32"/>
</svg>
