<svg width="32" height="32" viewBox="0 0 32 32" fill="none" xmlns="http://www.w3.org/2000/svg">
<g clip-path="url(#clip0_378_1804)">
<path d="M8.75848 5.74361C8.75848 4.61071 9.67687 3.69232 10.8098 3.69232H14.1611C14.4343 3.69232 14.6312 3.95442 14.5551 4.21684L9.56276 21.4318C9.43052 21.8878 8.75848 21.7923 8.75848 21.3175V5.74361Z" fill="#2485AE"/>
<path d="M2.63285 8.31382C2.11104 7.17155 2.72889 5.83279 3.93664 5.48871L6.83947 4.66172C7.10148 4.58707 7.36213 4.78384 7.36213 5.05628L7.36213 16.7812C7.36213 17.222 6.76186 17.3526 6.57871 16.9517L2.63285 8.31382Z" fill="#2485AE"/>
<rect x="16.2837" y="3.78558" width="14.7692" height="21.3333" rx="2.05128" transform="rotate(15 16.2837 3.78558)" fill="#2485AE"/>
</g>
<defs>
<clipPath id="clip0_378_1804">
<rect width="32" height="32" fill="white"/>
</clipPath>
</defs>
</svg>
