<svg width="21" height="20" viewBox="0 0 21 20" fill="none" xmlns="http://www.w3.org/2000/svg">
<path d="M19.25 4.62197C20.1239 4.31309 20.75 3.47966 20.75 2.5C20.75 1.25736 19.7426 0.25 18.5 0.25C17.2574 0.25 16.25 1.25736 16.25 2.5C16.25 3.47966 16.8761 4.31309 17.75 4.62197V10.45C17.75 10.7814 17.4814 11.05 17.15 11.05C16.7358 11.05 16.4 11.3858 16.4 11.8C16.4 12.2142 16.7358 12.55 17.15 12.55C18.3098 12.55 19.25 11.6098 19.25 10.45V4.62197Z" fill="#8B95A2"/>
<path fill-rule="evenodd" clip-rule="evenodd" d="M15.5 4.75V17.5C15.5 18.7426 14.4926 19.75 13.25 19.75H2.75C1.50736 19.75 0.5 18.7426 0.5 17.5V4.7511C0.5 3.50918 1.50664 2.5 2.75 2.5H13.25C14.4926 2.5 15.5 3.50736 15.5 4.75ZM2 4.7511C2 4.33617 2.3365 4 2.75 4H13.25C13.6642 4 14 4.33579 14 4.75V6.25H2V4.7511ZM14 7.75V13H11V7.75H14ZM9.5 7.75V13H6.5V7.75H9.5ZM5 7.75V13H2V7.75H5ZM14 14.5H2V17.5C2 17.9142 2.33579 18.25 2.75 18.25H13.25C13.6642 18.25 14 17.9142 14 17.5V14.5Z" fill="#8B95A2"/>
</svg>
