<svg width="30" height="22" viewBox="0 0 30 22" fill="none" xmlns="http://www.w3.org/2000/svg">
<path d="M19.798 7.43599L16.518 3.30399C16.7674 3.01371 16.9283 2.65799 16.9815 2.27902C17.0348 1.90005 16.9782 1.51376 16.8185 1.16598C16.6588 0.818209 16.4027 0.523557 16.0805 0.316997C15.7584 0.110436 15.3837 0.000640869 15.001 0.000640869C14.6183 0.000640869 14.2437 0.110436 13.9215 0.316997C13.5993 0.523557 13.3432 0.818209 13.1835 1.16598C13.0238 1.51376 12.9672 1.90005 13.0205 2.27902C13.0737 2.65799 13.2346 3.01371 13.484 3.30399L10.204 7.43599C10.0638 7.61335 9.86769 7.73799 9.64758 7.78957C9.42747 7.84115 9.19638 7.81662 8.992 7.71999L3.97 5.35199C3.99 5.23732 4 5.11999 4 4.99999C3.99998 4.59675 3.87807 4.20294 3.65026 3.87022C3.42245 3.53749 3.0994 3.2814 2.72347 3.13554C2.34754 2.98968 1.93629 2.96085 1.54369 3.05285C1.15109 3.14485 0.795469 3.35338 0.52348 3.65107C0.251491 3.94877 0.0758395 4.32172 0.0195701 4.72101C-0.0366994 5.12031 0.0290414 5.52728 0.208168 5.88855C0.387294 6.24981 0.671439 6.5485 1.02332 6.74541C1.37521 6.94233 1.7784 7.02828 2.18 6.99199L4.78 19.992C4.89358 20.5578 5.19941 21.0669 5.64561 21.4329C6.09181 21.7989 6.6509 21.9993 7.228 22H22.768C23.3461 22.0001 23.9063 21.7999 24.3534 21.4334C24.8005 21.0669 25.1067 20.5568 25.22 19.99L27.82 6.99199C27.8787 6.99732 27.938 6.99999 27.998 6.99999C28.4086 6.99974 28.8092 6.87312 29.1453 6.63734C29.4814 6.40155 29.7369 6.06802 29.8769 5.68205C30.0169 5.29607 30.0347 4.87635 29.928 4.47988C29.8212 4.08342 29.595 3.72942 29.2801 3.46597C28.9651 3.20252 28.5768 3.04238 28.1677 3.0073C27.7586 2.97222 27.3486 3.0639 26.9934 3.26988C26.6382 3.47587 26.3551 3.78618 26.1823 4.15868C26.0096 4.53118 25.9557 4.94781 26.028 5.35199L21.008 7.71999C20.8039 7.81611 20.5732 7.84036 20.3535 7.7888C20.1338 7.73724 19.9381 7.6129 19.798 7.43599ZM15 16C14.4696 16 13.9609 15.7893 13.5858 15.4142C13.2107 15.0391 13 14.5304 13 14C13 13.4696 13.2107 12.9608 13.5858 12.5858C13.9609 12.2107 14.4696 12 15 12C15.5304 12 16.0391 12.2107 16.4142 12.5858C16.7893 12.9608 17 13.4696 17 14C17 14.5304 16.7893 15.0391 16.4142 15.4142C16.0391 15.7893 15.5304 16 15 16Z" fill="#FFAE35"/>
</svg>
