<svg width="20" height="21" viewBox="0 0 20 21" fill="none" xmlns="http://www.w3.org/2000/svg">
<path d="M10.6075 2.22506C10.438 2.08081 10.2226 2.00159 10 2.00159C9.77739 2.00159 9.56205 2.08081 9.3925 2.22506L2.08 8.44106C1.97646 8.52914 1.89332 8.63869 1.83634 8.76211C1.77936 8.88553 1.7499 9.01987 1.75 9.15581V18.8751C1.75 18.9745 1.78951 19.0699 1.85984 19.1402C1.93016 19.2105 2.02554 19.2501 2.125 19.2501H5.875C5.97446 19.2501 6.06984 19.2105 6.14017 19.1402C6.21049 19.0699 6.25 18.9745 6.25 18.8751V13.6251C6.25 13.1278 6.44754 12.6509 6.79917 12.2992C7.15081 11.9476 7.62772 11.7501 8.125 11.7501H11.878C12.1242 11.7501 12.368 11.7986 12.5955 11.8928C12.823 11.987 13.0297 12.1251 13.2038 12.2992C13.3779 12.4733 13.516 12.68 13.6103 12.9075C13.7045 13.135 13.753 13.3788 13.753 13.6251V18.8751C13.753 18.9745 13.7925 19.0699 13.8628 19.1402C13.9332 19.2105 14.0285 19.2501 14.128 19.2501H17.875C17.9745 19.2501 18.0698 19.2105 18.1402 19.1402C18.2105 19.0699 18.25 18.9745 18.25 18.8751V9.15506C18.25 9.01924 18.2205 8.88505 18.1635 8.76177C18.1065 8.63849 18.0234 8.52906 17.92 8.44106L10.6075 2.22506ZM8.42125 1.08281C8.86197 0.708152 9.42156 0.502441 10 0.502441C10.5784 0.502441 11.138 0.708152 11.5787 1.08281L18.8913 7.29806C19.1604 7.52687 19.3766 7.81145 19.5249 8.13209C19.6732 8.45274 19.75 8.80178 19.75 9.15506V18.8751C19.75 19.3723 19.5525 19.8492 19.2008 20.2009C18.8492 20.5525 18.3723 20.7501 17.875 20.7501H14.128C13.6307 20.7501 13.1538 20.5525 12.8022 20.2009C12.4505 19.8492 12.253 19.3723 12.253 18.8751V13.6251C12.253 13.5256 12.2135 13.4302 12.1432 13.3599C12.0728 13.2896 11.9775 13.2501 11.878 13.2501H8.125C8.02554 13.2501 7.93016 13.2896 7.85983 13.3599C7.78951 13.4302 7.75 13.5256 7.75 13.6251V18.8751C7.75 19.3723 7.55246 19.8492 7.20083 20.2009C6.84919 20.5525 6.37228 20.7501 5.875 20.7501H2.125C1.62772 20.7501 1.15081 20.5525 0.799175 20.2009C0.447544 19.8492 0.25 19.3723 0.25 18.8751V9.15506C0.25002 8.80178 0.326829 8.45274 0.475108 8.13209C0.623387 7.81145 0.839592 7.52687 1.10875 7.29806L8.42125 1.08281Z" fill="white"/>
</svg>
