<svg width="20" height="15" viewBox="0 0 20 15" fill="none" xmlns="http://www.w3.org/2000/svg">
<path d="M0.752989 12.9999H19.253C19.4429 13.0002 19.6257 13.0726 19.7643 13.2024C19.903 13.3322 19.9872 13.5098 20.0001 13.6993C20.0129 13.8888 19.9533 14.0761 19.8334 14.2234C19.7135 14.3707 19.5422 14.467 19.354 14.4929L19.253 14.4999H0.752989C0.561613 14.5019 0.376732 14.4306 0.236206 14.3007C0.0956797 14.1707 0.0101406 13.992 -0.00289558 13.8011C-0.0159318 13.6101 0.0445215 13.4214 0.166085 13.2736C0.287648 13.1258 0.461124 13.03 0.650989 13.0059L0.752989 12.9999ZM0.752989 6.50293H19.253C19.4429 6.50324 19.6257 6.5756 19.7643 6.70541C19.903 6.83522 19.9872 7.0128 20.0001 7.20231C20.0129 7.39181 19.9533 7.57912 19.8334 7.72642C19.7135 7.87372 19.5422 7.97004 19.354 7.99593L19.253 8.00293H0.752989C0.561613 8.00488 0.376732 7.93359 0.236206 7.80366C0.0956797 7.67373 0.0101406 7.495 -0.00289558 7.30405C-0.0159318 7.11311 0.0445215 6.92441 0.166085 6.77659C0.287648 6.62877 0.461124 6.53301 0.650989 6.50893L0.752989 6.50293ZM0.751989 0.00292969H19.252C19.442 0.00298793 19.6249 0.0751745 19.7638 0.204903C19.9026 0.334631 19.9871 0.512228 20 0.70181C20.013 0.891391 19.9535 1.07882 19.8336 1.22623C19.7136 1.37364 19.5422 1.47003 19.354 1.49593L19.252 1.50293H0.751989C0.561966 1.50287 0.379049 1.43069 0.240198 1.30096C0.101347 1.17123 0.0169154 0.993632 0.00396337 0.80405C-0.00898862 0.614468 0.0505047 0.427038 0.170422 0.279631C0.290339 0.132224 0.46174 0.0358316 0.649989 0.00993013L0.751989 0.00292969Z" fill="#8B95A2"/>
</svg>
