<svg width="19" height="18" viewBox="0 0 19 18" fill="none" xmlns="http://www.w3.org/2000/svg">
<path d="M9.47684 7.9522L11.6373 5.70007L13.7977 7.9522C14.633 8.82279 13.6653 10.0574 12.525 9.79405L13.1112 11.4751H10.1633L10.7495 9.79405C9.60921 10.0574 8.64157 8.82279 9.47684 7.9522Z" fill="#8B95A2"/>
<path fill-rule="evenodd" clip-rule="evenodd" d="M7.36242 0C6.12125 0 5.11241 1.00363 5.11241 2.24774V15.7522C5.11241 16.9963 6.12122 18 7.36242 18H15.9124C17.1551 18 18.1624 16.9926 18.1624 15.75V2.25C18.1624 1.00736 17.1551 0 15.9124 0H7.36242ZM6.61242 2.24774C6.61242 1.835 6.94673 1.5 7.36242 1.5H15.9124C16.3266 1.5 16.6624 1.83579 16.6624 2.25V15.75C16.6624 16.1642 16.3266 16.5 15.9124 16.5H7.36242C6.94676 16.5 6.61242 16.165 6.61242 15.7522V2.24774Z" fill="#8B95A2"/>
<path d="M3.48994 3.65518C3.85179 3.45358 3.98169 2.99682 3.78009 2.63497C3.57849 2.27313 3.12173 2.14323 2.75989 2.34482L1.17854 3.22586C0.26242 3.73627 -0.179599 4.81189 0.112916 5.81898L2.40468 13.7092C2.52022 14.107 2.93634 14.3358 3.33411 14.2202C3.73189 14.1047 3.96068 13.6886 3.84515 13.2908L1.55338 5.40059C1.45588 5.06489 1.60322 4.70635 1.90859 4.53621L3.48994 3.65518Z" fill="#8B95A2"/>
</svg>
