<svg width="20" height="20" viewBox="0 0 20 20" fill="none" xmlns="http://www.w3.org/2000/svg">
<path d="M11.7201 7.22C11.7887 7.14631 11.8715 7.08721 11.9635 7.04622C12.0555 7.00523 12.1548 6.98318 12.2555 6.98141C12.3562 6.97963 12.4563 6.99816 12.5497 7.03588C12.643 7.0736 12.7279 7.12974 12.7991 7.20096C12.8703 7.27218 12.9265 7.35701 12.9642 7.4504C13.0019 7.54379 13.0204 7.64382 13.0187 7.74452C13.0169 7.84522 12.9948 7.94454 12.9538 8.03654C12.9129 8.12854 12.8537 8.21134 12.7801 8.28L8.28006 12.78C8.2114 12.8537 8.1286 12.9128 8.0366 12.9538C7.9446 12.9948 7.84529 13.0168 7.74458 13.0186C7.64388 13.0204 7.54385 13.0018 7.45046 12.9641C7.35708 12.9264 7.27224 12.8703 7.20102 12.799C7.1298 12.7278 7.07366 12.643 7.03594 12.5496C6.99822 12.4562 6.97969 12.3562 6.98147 12.2555C6.98325 12.1548 7.00529 12.0555 7.04628 11.9635C7.08727 11.8715 7.14637 11.7887 7.22006 11.72L11.7201 7.22ZM15.7501 0C16.8772 0 17.9582 0.447767 18.7553 1.2448C19.5523 2.04183 20.0001 3.12283 20.0001 4.25V5.25C20.0001 13.396 13.3961 20 5.25006 20H4.25006C3.12289 20 2.04189 19.5522 1.24486 18.7552C0.447828 17.9582 6.10352e-05 16.8772 6.10352e-05 15.75V14.75C6.10352e-05 6.604 6.60406 0 14.7501 0H15.7501ZM18.5001 4.25C18.5001 3.52065 18.2103 2.82118 17.6946 2.30546C17.1789 1.78973 16.4794 1.5 15.7501 1.5H14.7501C14.3467 1.5 13.9481 1.51767 13.5541 1.553L18.4471 6.446C18.4824 6.052 18.5001 5.65333 18.5001 5.25V4.25ZM18.1531 8.274L11.7261 1.847C9.30691 2.41596 7.09615 3.65281 5.34552 5.4167C3.59489 7.18059 2.37475 9.40063 1.82406 11.824L8.17606 18.176C10.5994 17.6253 12.8195 16.4052 14.5834 14.6545C16.3472 12.9039 17.5841 10.6931 18.1531 8.274ZM1.54306 13.665C1.51439 14.023 1.50006 14.3847 1.50006 14.75V15.75C1.50006 16.4793 1.78979 17.1788 2.30552 17.6945C2.82124 18.2103 3.52072 18.5 4.25006 18.5H5.25006C5.61539 18.5 5.97706 18.4853 6.33506 18.456L1.54306 13.665Z" fill="#8B95A2"/>
</svg>
