<svg width="13" height="14" viewBox="0 0 13 14" fill="none" xmlns="http://www.w3.org/2000/svg">
<path d="M12.222 5.68494C12.4572 5.81443 12.6533 6.00466 12.7899 6.23579C12.9265 6.46692 12.9985 6.73047 12.9985 6.99894C12.9985 7.26741 12.9265 7.53096 12.7899 7.76209C12.6533 7.99322 12.4572 8.18345 12.222 8.31294L2.222 13.8109C1.99358 13.9364 1.73641 14.0001 1.47585 13.9959C1.21529 13.9917 0.960312 13.9197 0.736045 13.787C0.511778 13.6543 0.325958 13.4654 0.196892 13.239C0.0678256 13.0126 -3.36145e-05 12.7565 1.24916e-08 12.4959V1.50194C4.46389e-05 1.24128 0.068011 0.985139 0.1972 0.758751C0.32639 0.532362 0.512342 0.343546 0.73673 0.210912C0.961118 0.0782776 1.21619 0.00640453 1.47682 0.00237643C1.73744 -0.00165167 1.99462 0.0623043 2.223 0.18794L12.222 5.68494Z" fill="white"/>
</svg>
