<svg width="96" height="91" viewBox="0 0 96 91" fill="none" xmlns="http://www.w3.org/2000/svg">
<rect x="0.5" y="0.5" width="95" height="90" rx="15.5" fill="url(#paint0_linear_281_3265)" fill-opacity="0.5"/>
<rect x="0.5" y="0.5" width="95" height="90" rx="15.5" stroke="url(#paint1_linear_281_3265)"/>
<path d="M36.7437 31V20.92H38.2277L43.1907 28.41V20.92H44.6747V31H43.1907L38.2277 23.503V31H36.7437ZM46.6284 31V20.92H52.5994V22.383H48.0914V25.225H51.7594V26.695H48.0914V31H46.6284ZM54.0009 31V20.92H55.4639V29.621H60.0279V31H54.0009Z" fill="white"/>
<path d="M50.9663 57.1664C51.1165 57.0162 51.2009 56.8125 51.2009 56.6C51.2009 56.3876 51.1165 56.1838 50.9663 56.0336C50.8161 55.8834 50.6124 55.799 50.3999 55.799C50.1875 55.799 49.9837 55.8834 49.8335 56.0336L45.0335 60.8336C44.9592 60.908 44.9003 60.9963 44.8602 61.0934C44.82 61.1906 44.7994 61.2947 44.7995 61.3998C44.7995 61.5049 44.8203 61.609 44.8606 61.7061C44.9009 61.8031 44.9599 61.8913 45.0343 61.9656C45.1087 62.0399 45.197 62.0988 45.2941 62.1389C45.3913 62.1791 45.4954 62.1997 45.6005 62.1997C45.7056 62.1996 45.8097 62.1788 45.9067 62.1385C46.0038 62.0982 46.092 62.0392 46.1663 61.9648L50.9663 57.1664ZM60.8063 49.7616C60.7951 47.7328 59.1103 46.1744 57.1231 46.2C48.1279 46.3152 42.5231 49.6464 39.2319 54.1312C35.9695 58.576 35.0607 64.048 35.2159 68.352C35.2847 70.24 36.8175 71.6848 38.6607 71.7712C47.4975 72.1792 53.1023 68.9968 56.4591 64.4688C59.7807 59.9888 60.8303 54.296 60.8063 49.7616ZM57.1407 47.8C58.2815 47.7856 59.1983 48.6704 59.2047 49.768C59.2111 51.2048 59.1055 52.7488 58.8495 54.32L52.6943 48.1648C54.166 47.9344 55.6511 47.8125 57.1407 47.8ZM50.8079 48.5408L58.4719 56.2048C57.8559 58.7632 56.8079 61.312 55.1759 63.5168C53.0671 66.3568 49.9503 68.672 45.3999 69.672L45.3663 69.6336L37.4783 61.7472C38.0479 59.4384 39.0159 57.1296 40.5215 55.0768C42.6607 52.1648 45.9231 49.7136 50.8079 48.5408ZM37.0991 63.6288L43.4751 70.0048C42.0271 70.1888 40.4511 70.2512 38.7359 70.1728C37.6799 70.1232 36.8543 69.3056 36.8159 68.2944C36.7647 66.8368 36.8415 65.2512 37.0991 63.6288Z" fill="white"/>
<defs>
<linearGradient id="paint0_linear_281_3265" x1="48" y1="0" x2="48" y2="91" gradientUnits="userSpaceOnUse">
<stop stop-color="#D63535"/>
<stop offset="1" stop-color="#902626"/>
</linearGradient>
<linearGradient id="paint1_linear_281_3265" x1="48" y1="0" x2="48" y2="91" gradientUnits="userSpaceOnUse">
<stop stop-color="#110014"/>
<stop offset="1" stop-color="white" stop-opacity="0.1"/>
</linearGradient>
</defs>
</svg>
