<svg width="20" height="21" viewBox="0 0 20 21" fill="none" xmlns="http://www.w3.org/2000/svg">
<path fill-rule="evenodd" clip-rule="evenodd" d="M16.7495 16.6991C16.3676 15.3107 15.099 14.3074 13.6187 14.3074C12.1384 14.3074 10.8699 15.3107 10.4879 16.6991H0.941108C0.467429 16.6991 0.0834351 17.0908 0.0834351 17.5741C0.0834351 18.0573 0.467428 18.4491 0.941108 18.4491H10.4879C10.8699 19.8375 12.1384 20.8407 13.6187 20.8407C15.099 20.8407 16.3676 19.8375 16.7495 18.4491H19.0591C19.5328 18.4491 19.9168 18.0573 19.9168 17.5741C19.9168 17.0908 19.5328 16.6991 19.0591 16.6991H16.7495ZM15.0372 17.5741C15.0372 16.8184 14.4195 16.1741 13.6187 16.1741C12.818 16.1741 12.2003 16.8184 12.2003 17.5741C12.2003 18.3298 12.818 18.9741 13.6187 18.9741C14.4195 18.9741 15.0372 18.3298 15.0372 17.5741Z" fill="#B8C0CA"/>
<path fill-rule="evenodd" clip-rule="evenodd" d="M9.37445 9.62502C8.99251 8.2366 7.72394 7.23336 6.24364 7.23336C4.76333 7.23336 3.49477 8.2366 3.11282 9.62502H0.941108C0.467428 9.62502 0.0834351 10.0168 0.0834351 10.5C0.0834351 10.9833 0.467429 11.375 0.941108 11.375H3.11282C3.49477 12.7634 4.76333 13.7667 6.24364 13.7667C7.72394 13.7667 8.99251 12.7634 9.37445 11.375H19.0591C19.5328 11.375 19.9168 10.9833 19.9168 10.5C19.9168 10.0168 19.5328 9.62502 19.0591 9.62502H9.37445ZM7.66212 10.5C7.66212 9.74434 7.04438 9.10002 6.24364 9.10002C5.44289 9.10002 4.82515 9.74434 4.82515 10.5C4.82515 11.2557 5.44289 11.9 6.24364 11.9C7.04438 11.9 7.66212 11.2557 7.66212 10.5Z" fill="#B8C0CA"/>
<path fill-rule="evenodd" clip-rule="evenodd" d="M16.7495 2.55097C16.3676 1.16255 15.099 0.159302 13.6187 0.159302C12.1384 0.159302 10.8699 1.16255 10.4879 2.55097H0.941108C0.467428 2.55097 0.0834351 2.94272 0.0834351 3.42597C0.0834351 3.90922 0.467428 4.30097 0.941108 4.30097H10.4879C10.8699 5.68939 12.1384 6.69264 13.6187 6.69264C15.099 6.69264 16.3676 5.68939 16.7495 4.30097H19.0591C19.5328 4.30097 19.9168 3.90922 19.9168 3.42597C19.9168 2.94272 19.5328 2.55097 19.0591 2.55097H16.7495ZM15.0372 3.42597C15.0372 2.67028 14.4195 2.02597 13.6187 2.02597C12.818 2.02597 12.2003 2.67028 12.2003 3.42597C12.2003 4.18166 12.818 4.82597 13.6187 4.82597C14.4195 4.82597 15.0372 4.18166 15.0372 3.42597Z" fill="#B8C0CA"/>
</svg>
