<svg width="20" height="18" viewBox="0 0 20 18" fill="none" xmlns="http://www.w3.org/2000/svg">
<path d="M12.4605 0.157044C12.3496 0.0708075 12.2168 0.0174323 12.0771 0.00299611C11.9374 -0.0114401 11.7964 0.013643 11.6703 0.0753893C11.5441 0.137136 11.4379 0.233064 11.3635 0.35225C11.2892 0.471437 11.2499 0.609094 11.25 0.749544V3.73904L11.0475 3.74954C10.2549 3.80356 9.47453 3.97388 8.7315 4.25504C7.48136 4.72822 6.39149 5.54705 5.589 6.61604C4.6545 7.85504 3.9675 9.57404 3.753 11.932C3.7388 12.0857 3.77235 12.24 3.84908 12.3739C3.9258 12.5078 4.04197 12.6148 4.18174 12.6803C4.3215 12.7457 4.47805 12.7665 4.63004 12.7397C4.78203 12.7129 4.92205 12.6398 5.031 12.5305C6.813 10.7455 8.5845 9.86654 9.894 9.43004C10.434 9.25004 10.896 9.14504 11.25 9.08504V11.9995C11.25 12.1441 11.2917 12.2856 11.3702 12.407C11.4487 12.5284 11.5606 12.6245 11.6925 12.6838C11.8244 12.7431 11.9705 12.763 12.1135 12.7411C12.2564 12.7192 12.3899 12.6565 12.498 12.5605L19.248 6.56054C19.3304 6.48745 19.3958 6.39708 19.4393 6.29588C19.4829 6.19467 19.5036 6.08511 19.5 5.97499C19.4965 5.86487 19.4687 5.75689 19.4186 5.65872C19.3686 5.56056 19.2975 5.47463 19.2105 5.40704L12.4605 0.157044ZM11.9145 5.24504H11.919C12.0237 5.25642 12.1296 5.24561 12.2299 5.21334C12.3301 5.18106 12.4224 5.12803 12.5008 5.0577C12.5792 4.98738 12.6419 4.90133 12.6849 4.80516C12.7278 4.70899 12.75 4.60486 12.75 4.49954V2.28254L17.5785 6.03854L12.75 10.3285V8.24954C12.75 8.05063 12.671 7.85987 12.5303 7.71921C12.3897 7.57856 12.1989 7.49954 12 7.49954H11.9325L11.7825 7.50854C11.6044 7.5212 11.4268 7.54021 11.25 7.56554C10.8 7.63004 10.17 7.75604 9.42 8.00654C8.04342 8.47391 6.75243 9.16298 5.598 10.0465C5.889 8.97254 6.312 8.15054 6.7875 7.51904C7.42058 6.67481 8.28121 6.02856 9.2685 5.65604C10.0547 5.36018 10.8902 5.21712 11.73 5.23454C11.798 5.23654 11.848 5.23904 11.88 5.24204L11.9145 5.24504ZM3.75 1.49954C2.75544 1.49954 1.80161 1.89463 1.09835 2.59789C0.395088 3.30116 0 4.25498 0 5.24954V14.2495C0 15.2441 0.395088 16.1979 1.09835 16.9012C1.80161 17.6045 2.75544 17.9995 3.75 17.9995H12.75C13.7446 17.9995 14.6984 17.6045 15.4017 16.9012C16.1049 16.1979 16.5 15.2441 16.5 14.2495V12.7495C16.5 12.5506 16.421 12.3599 16.2803 12.2192C16.1397 12.0786 15.9489 11.9995 15.75 11.9995C15.5511 11.9995 15.3603 12.0786 15.2197 12.2192C15.079 12.3599 15 12.5506 15 12.7495V14.2495C15 14.8463 14.7629 15.4186 14.341 15.8405C13.919 16.2625 13.3467 16.4995 12.75 16.4995H3.75C3.15326 16.4995 2.58097 16.2625 2.15901 15.8405C1.73705 15.4186 1.5 14.8463 1.5 14.2495V5.24954C1.5 4.65281 1.73705 4.08051 2.15901 3.65855C2.58097 3.2366 3.15326 2.99954 3.75 2.99954H6.75C6.94891 2.99954 7.13968 2.92053 7.28033 2.77987C7.42098 2.63922 7.5 2.44846 7.5 2.24954C7.5 2.05063 7.42098 1.85987 7.28033 1.71921C7.13968 1.57856 6.94891 1.49954 6.75 1.49954H3.75Z" fill="white"/>
</svg>
