<svg width="10" height="6" viewBox="0 0 10 6" fill="none" xmlns="http://www.w3.org/2000/svg">
<path d="M1.95702 6C1.77434 6.00001 1.59515 5.94998 1.4389 5.85534C1.28265 5.7607 1.15531 5.62507 1.0707 5.46316C0.986088 5.30126 0.947444 5.11928 0.958959 4.93696C0.970475 4.75465 1.03171 4.57897 1.13602 4.429L3.76902 0.645C3.90719 0.446553 4.0913 0.284452 4.30564 0.172512C4.51998 0.0605721 4.75821 0.00211048 5.00002 0.00211048C5.24183 0.00211048 5.48006 0.0605721 5.6944 0.172512C5.90875 0.284452 6.09285 0.446553 6.23102 0.645L8.86402 4.429C8.96833 4.57897 9.02957 4.75465 9.04108 4.93696C9.0526 5.11928 9.01395 5.30126 8.92934 5.46316C8.84473 5.62507 8.71739 5.7607 8.56114 5.85534C8.40489 5.94998 8.2257 6.00001 8.04302 6H1.95702Z" fill="#8AF66F"/>
</svg>
